<svg width="1200" height="320" viewBox="0 0 1200 320" xmlns="http://www.w3.org/2000/svg">
  <defs>
    <linearGradient id="bg" x1="0" y1="0" x2="1" y2="1">
      <stop offset="0%" stop-color="#fff7ed" />
      <stop offset="100%" stop-color="#f8fafc" />
    </linearGradient>
  </defs>
  <rect width="1200" height="320" fill="url(#bg)" />
  <g opacity="0.16" stroke="#9a3412" stroke-width="2" fill="none">
    <circle cx="200" cy="140" r="90" />
    <circle cx="420" cy="110" r="55" />
    <circle cx="620" cy="160" r="75" />
    <path d="M110 140 H290 M420 55 V165 M545 160 H695" />
  </g>
  <g opacity="0.22" stroke="#f97316" stroke-width="3" fill="none">
    <path d="M120 230 C240 190 360 190 480 230" />
    <path d="M720 230 C840 180 960 180 1080 230" />
  </g>
  <g opacity="0.2" stroke="#1f2937" stroke-width="2" fill="none">
    <path d="M760 190 L840 190 L880 155 L980 155 L1020 190 L1100 190" />
    <rect x="780" y="190" width="300" height="58" rx="26" />
    <circle cx="830" cy="248" r="20" />
    <circle cx="1010" cy="248" r="20" />
  </g>
</svg>
