<svg xmlns="http://www.w3.org/2000/svg" width="136.291" height="39.944" viewBox="0 0 136.291 39.944">
  <path id="Tracciato_7" data-name="Tracciato 7" d="M318.67,418.856a9.747,9.747,0,0,1,7.417,1.593,4.1,4.1,0,0,1,1,1.33,5.12,5.12,0,0,1,.585,1.818l.005,1.157a7.876,7.876,0,0,0-.243.908,12.76,12.76,0,0,1-.858,2.1.753.753,0,0,0,0,.258,4.583,4.583,0,0,1,3.652,4.026c.026.289.113.579.115.722l0,9.885c.107-.076,6.291-16.586,6.671-17.268.705-1.986,1.4-3.981,2.2-5.821a.519.519,0,0,1,.276-.246c1.741-.048,3.477-.047,5.254-.007a25.92,25.92,0,0,1,1.175,2.838s7.794,20.1,7.892,20.606a22.907,22.907,0,0,1-2.37.061l-3.249.007c-.216-.338-2.482-6.877-2.711-7.246a.608.608,0,0,0-.473-.283l-4.342-.005a.423.423,0,0,1-.344-.186,1.325,1.325,0,0,1,.049-1.114,21.05,21.05,0,0,0,.885-2.32,6.711,6.711,0,0,1,.573-1.307,7.508,7.508,0,0,1,1.9-.006c-.394-1.157-.737-2.276-1.174-3.418a.866.866,0,0,1,0-.149,6.719,6.719,0,0,1-.4-1.035c-.027-.1-.242.1-.171.165l-4.068,11.389s-1.824,4.986-1.9,5.306a.448.448,0,0,1-.226.2c-1.785-.019-3.572-.038-5.442,0l-.008,4.407c-1.868.095-3.737.047-5.605.013V433.53a9.375,9.375,0,0,1-.237-.919,1.559,1.559,0,0,0-1.051-1.123l-.979-.232-1.931,0-.026-4.624c0-.152.311-.136.465-.144a1,1,0,0,0,.565-.189l.6-.629a.989.989,0,0,0-.217-1.207,1.065,1.065,0,0,0-.624-.367l-1.735-.006c-.172,0-.335.3-.335.492l.029,18.25h-5.549c-.168-7.471-.087-14.944-.075-22.4a1.115,1.115,0,0,1,.782-.731,37.526,37.526,0,0,1,4.245-.843Zm-52.914-.338a12.917,12.917,0,0,1,14.134,8.361,11.489,11.489,0,0,1,.61,3.638,11.943,11.943,0,0,1-1.7,6.151,12.585,12.585,0,0,1-8.206,5.761,13.9,13.9,0,0,1-6.6-.183l-.849-.338c-.037-.013-.195-.036-.068.012a12.285,12.285,0,0,1-8.245-11.45l.094-1.607a12.055,12.055,0,0,1,.755-2.686,12.759,12.759,0,0,1,10.078-7.661Zm35.343.249,2.387,0a9.35,9.35,0,0,1,2.527.588,5.973,5.973,0,0,1,2.139,1.25l.55.732a5.736,5.736,0,0,1,.746,1.781,5.6,5.6,0,0,1-.466,3.441c-.192.433-.372.876-.632,1.351,3.345.954,4.927,4.387,4.577,7.627a8.144,8.144,0,0,1-7.3,7.158l-.919.137h-2.242c-.055-1.662-.072-3.327-.05-5.11l2.137-.041a3.4,3.4,0,0,0,2.864-2.582,3.1,3.1,0,0,0-.03-1.372,3.367,3.367,0,0,0-2.957-2.452l-1.811-.019c-.2,0-.229-.218-.237-.365-.069-1.41-.007-2.819.01-4.253,0-.012.139-.183.207-.174.668.08,1.294-.41,1.548-1.3a1.194,1.194,0,0,0-.2-.536,1.418,1.418,0,0,0-1.586-.525,1.7,1.7,0,0,0-1.042.043.423.423,0,0,0-.19.342l.035,18.343h-5.616l-.039-18.864c0-1.174-.032-2.348.042-3.519a.6.6,0,0,1,.234-.462,4.453,4.453,0,0,1,1.154-.466,39.951,39.951,0,0,1,4.161-.749Zm64.339-4.042,6.225-.009a9.067,9.067,0,0,1-.927,1.481l-9.615,14.128v12.353c0,.092-.339.144-.521.146l-4.967.005-.026-12.221-7.574-11.116c-.059-.09.005-.274.119-.273l6.306.041c1.268,1.884,2.584,3.765,3.827,5.673.073.111.249-.075.291-.136Zm-98.855,8.942a6.988,6.988,0,0,0-5.75,5.511,6.2,6.2,0,0,0-.008,2.527,7.052,7.052,0,0,0,13.579,1.063c-.039.1-.015-.053,0-.1a6.864,6.864,0,0,0-4.146-8.623,7.419,7.419,0,0,0-3.676-.376Zm58.451,26.451H235.371v4.466h89.663Zm36.15,0H342.853v4.466h18.331Zm-66.546-31.08H279.065V424.4h4.99v18.369h5.972V424.4h4.612ZM333.1,453.112h-1.563v-4.96h-1.292v6.316H333.1Zm4.459-4.107a2.786,2.786,0,0,0-1.795.635v-.563h-3.621v1.26H333.2v4.131h1.4v-4.131h1.148v4.131h1.4V450.6a.948.948,0,0,1,.782-.421,1.654,1.654,0,0,1,1.371,1.611,1.311,1.311,0,0,1-1.371,1.435c-.193,0-.373.033-.51.016v1.2h.048c2.137,0,3.078-1.213,3.078-2.628A2.9,2.9,0,0,0,337.559,449.005Zm3.67,4.895a.542.542,0,1,1-.542-.543A.542.542,0,0,1,341.228,453.9Zm-99.581-34.734h-5.98v23.68h5.98Zm6.628-4.526v11.073h-5.415v5.093h5.415v12.041h5.981V414.64Z" transform="translate(-235.371 -414.64)" fill="#fff" fill-rule="evenodd"/>
</svg>
