<svg width="1600" height="900" viewBox="0 0 1600 900" xmlns="http://www.w3.org/2000/svg">
  <defs>
    <linearGradient id="bg" x1="0" y1="0" x2="1" y2="1">
      <stop offset="0%" stop-color="#f8fafc" />
      <stop offset="100%" stop-color="#e2e8f0" />
    </linearGradient>
  </defs>
  <rect width="1600" height="900" fill="url(#bg)" />
  <g opacity="0.08" stroke="#0f172a" stroke-width="2" fill="none">
    <circle cx="240" cy="220" r="120" />
    <circle cx="520" cy="140" r="70" />
    <circle cx="980" cy="180" r="110" />
    <circle cx="1320" cy="260" r="90" />
    <circle cx="360" cy="560" r="140" />
    <circle cx="980" cy="620" r="160" />
    <circle cx="1320" cy="620" r="120" />
    <path d="M120 220 H360 M520 70 V210 M840 180 H1120 M1180 260 H1460" />
    <path d="M240 100 V340 M980 40 V320 M360 420 V700 M980 460 V780" />
  </g>
  <g opacity="0.1" stroke="#14b8a6" stroke-width="3" fill="none">
    <path d="M140 320 C260 260 380 260 500 320" />
    <path d="M720 260 C840 200 960 200 1080 260" />
    <path d="M1120 480 C1220 420 1320 420 1420 480" />
  </g>
  <g opacity="0.18" stroke="#0f172a" stroke-width="2" fill="none">
    <path d="M980 540 L1100 540 L1160 500 L1280 500 L1340 540 L1460 540" />
    <rect x="1040" y="540" width="320" height="60" rx="26" />
    <circle cx="1100" cy="610" r="24" />
    <circle cx="1320" cy="610" r="24" />
  </g>
</svg>
