<svg xmlns="http://www.w3.org/2000/svg" width="1600" height="600" viewBox="0 0 1600 600">
  <defs>
    <linearGradient id="bg" x1="0" y1="0" x2="1" y2="1">
      <stop offset="0%" stop-color="#0f2b5b"/>
      <stop offset="60%" stop-color="#1f4b9b"/>
      <stop offset="100%" stop-color="#2a6bd1"/>
    </linearGradient>
    <linearGradient id="panel" x1="0" y1="0" x2="0" y2="1">
      <stop offset="0%" stop-color="#ffffff" stop-opacity="0.18"/>
      <stop offset="100%" stop-color="#ffffff" stop-opacity="0.08"/>
    </linearGradient>
  </defs>
  <rect width="1600" height="600" fill="url(#bg)"/>
  <circle cx="1300" cy="120" r="140" fill="#7cc4ff" opacity="0.22"/>
  <circle cx="200" cy="480" r="180" fill="#5aa6ff" opacity="0.18"/>
  <rect x="140" y="140" width="1320" height="320" rx="28" fill="url(#panel)" stroke="#b7d7ff" stroke-opacity="0.25"/>
  <rect x="220" y="210" width="420" height="32" rx="16" fill="#e6f1ff" opacity="0.6"/>
  <rect x="220" y="260" width="520" height="20" rx="10" fill="#e6f1ff" opacity="0.4"/>
  <rect x="220" y="300" width="460" height="20" rx="10" fill="#e6f1ff" opacity="0.4"/>
  <rect x="220" y="350" width="220" height="42" rx="21" fill="#9bd1ff" opacity="0.7"/>
  <rect x="980" y="210" width="340" height="210" rx="18" fill="#0f2758" opacity="0.4"/>
  <rect x="1010" y="240" width="280" height="20" rx="10" fill="#e6f1ff" opacity="0.5"/>
  <rect x="1010" y="275" width="200" height="14" rx="7" fill="#e6f1ff" opacity="0.4"/>
  <rect x="1010" y="305" width="240" height="14" rx="7" fill="#e6f1ff" opacity="0.4"/>
  <rect x="1010" y="340" width="160" height="14" rx="7" fill="#e6f1ff" opacity="0.4"/>
</svg>
