<svg width="1200" height="320" viewBox="0 0 1200 320" xmlns="http://www.w3.org/2000/svg">
  <defs>
    <linearGradient id="bg" x1="0" y1="0" x2="1" y2="1">
      <stop offset="0%" stop-color="#e0f2fe" />
      <stop offset="100%" stop-color="#f8fafc" />
    </linearGradient>
  </defs>
  <rect width="1200" height="320" fill="url(#bg)" />
  <g opacity="0.16" stroke="#0c4a6e" stroke-width="2" fill="none">
    <circle cx="170" cy="140" r="85" />
    <circle cx="360" cy="110" r="55" />
    <circle cx="560" cy="160" r="75" />
    <path d="M85 140 H255 M360 60 V170 M485 160 H635" />
  </g>
  <g opacity="0.22" stroke="#0ea5e9" stroke-width="3" fill="none">
    <path d="M120 230 C240 190 360 190 480 230" />
    <path d="M700 230 C820 180 940 180 1060 230" />
  </g>
  <g opacity="0.2" stroke="#1f2937" stroke-width="2" fill="none">
    <path d="M760 190 L840 190 L880 155 L980 155 L1020 190 L1100 190" />
    <rect x="780" y="190" width="300" height="58" rx="26" />
    <circle cx="830" cy="248" r="20" />
    <circle cx="1010" cy="248" r="20" />
  </g>
</svg>
