<svg width="1200" height="320" viewBox="0 0 1200 320" xmlns="http://www.w3.org/2000/svg">
  <defs>
    <linearGradient id="bg" x1="0" y1="0" x2="1" y2="1">
      <stop offset="0%" stop-color="#eef2ff" />
      <stop offset="100%" stop-color="#f8fafc" />
    </linearGradient>
  </defs>
  <rect width="1200" height="320" fill="url(#bg)" />
  <g opacity="0.15" stroke="#1e293b" stroke-width="2" fill="none">
    <circle cx="150" cy="140" r="80" />
    <circle cx="340" cy="90" r="50" />
    <circle cx="520" cy="150" r="70" />
    <circle cx="980" cy="120" r="90" />
    <path d="M80 140 H220 M340 40 V140 M450 150 H590 M880 120 H1080" />
  </g>
  <g opacity="0.22" stroke="#2563eb" stroke-width="3" fill="none">
    <path d="M120 220 C220 180 320 180 420 220" />
    <path d="M700 220 C820 170 940 170 1060 220" />
  </g>
  <g opacity="0.2" stroke="#1e293b" stroke-width="2" fill="none">
    <path d="M720 190 L820 190 L870 150 L980 150 L1030 190 L1130 190" />
    <rect x="760" y="190" width="320" height="60" rx="26" />
    <circle cx="820" cy="250" r="22" />
    <circle cx="1020" cy="250" r="22" />
  </g>
</svg>
